<svg id="Capa_1" data-name="Capa 1" xmlns="http://www.w3.org/2000/svg" xmlns:xlink="http://www.w3.org/1999/xlink" viewBox="0 0 197.63 83.72"><defs><style>.cls-1{fill:none;}.cls-2{fill:#fff;}.cls-3{fill:#211915;}.cls-4{clip-path:url(#clip-path);}.cls-5{clip-path:url(#clip-path-2);}</style><clipPath id="clip-path" transform="translate(-860.37 -498.67)"><path class="cls-1" d="M935.92,569.08a18.49,18.49,0,0,1,0-25.7,17.42,17.42,0,0,1,25,0,18.55,18.55,0,0,1,0,25.7,17.37,17.37,0,0,1-25,0Z"/></clipPath><clipPath id="clip-path-2" transform="translate(-860.37 -498.67)"><path class="cls-1" d="M1000,553.45,998,558.35h5.46l1.9-4.91Z"/></clipPath></defs><title>faroweb</title><polygon class="cls-2" points="106.33 16.36 38.46 9.81 38.46 8.18 106.33 0 106.33 16.36"/><polygon class="cls-2" points="0.24 11.45 20.6 9.81 20.6 8.18 0.24 4.91 0.24 11.45"/><path class="cls-2" d="M865.5,574.53c.35-1.39,1.54-1.83,2.68-2.25a28.21,28.21,0,0,1,3.31-.91c4.18-1,6.62-3.67,7.4-7.91a53.35,53.35,0,0,0,.7-6.41,1.57,1.57,0,0,1,1-1.57,17.67,17.67,0,0,1,7.43-1.93c1.91,0,3.82.06,5.83.09,0,2.66,0,5,0,7.41a4.21,4.21,0,0,0,.6,1.6c.73,1.47,1.57,2.9,2.23,4.4a2.8,2.8,0,0,0,1.43,1.64,10.18,10.18,0,0,0,5.62.8c-2-4.13-2.23-8.55-2.79-12.9l.43-.16a4.87,4.87,0,0,1,.56,1.47,27.46,27.46,0,0,0,2.71,11.27,1.58,1.58,0,0,0,1,.85,9.53,9.53,0,0,1,5,2.36,14.67,14.67,0,0,0,1.58,1.3,3.33,3.33,0,0,0,1.31.14l1.79.14,0,.57Zm26.57-14.72h-2.51v5h2.51Z" transform="translate(-860.37 -498.67)"/><path class="cls-2" d="M892.93,526.14,884,527.5c.06-1,.11-2.34.22-3.65.2-2.26.5-4.52.67-6.78.21-2.75,1.47-3.16,3.33-3.59a15.35,15.35,0,0,1,4.69-.08,4,4,0,0,1,3.39,4c0,2.91.56,5.82.86,8.72a13.58,13.58,0,0,1,0,1.37c-.88,0-1.15-.42-1.2-1.24-.21-3.29-.46-6.58-.71-9.86a2.39,2.39,0,0,0-2.33-2.23Z" transform="translate(-860.37 -498.67)"/><path class="cls-2" d="M892.93,541.52l.69,10.48a26.28,26.28,0,0,0-13.2,1.56c.36-1.57.75-3,1-4.51s.36-2.9.65-4.33a2.22,2.22,0,0,1,.89-1.37A14.31,14.31,0,0,1,892.93,541.52Z" transform="translate(-860.37 -498.67)"/><path class="cls-2" d="M883.24,515.12a4.36,4.36,0,0,1-.44-1.08c-.08-.61.06-1.24,0-1.84-.29-1.72.56-2.58,2-3.07a17,17,0,0,1,12,.19,2.37,2.37,0,0,1,1.63,2.65c-.1,1.14.26,2.38-.82,3.39-.55-2.38-2.4-3.16-4.31-3.34a27.77,27.77,0,0,0-6.46.27A4.53,4.53,0,0,0,883.24,515.12Z" transform="translate(-860.37 -498.67)"/><path class="cls-2" d="M895.19,504.06a11.06,11.06,0,0,0-9.55,0c.17-.56.18-1.1.4-1.22a22.74,22.74,0,0,1,4.45-2.23C891.73,500.25,895.12,502.9,895.19,504.06Z" transform="translate(-860.37 -498.67)"/><path class="cls-2" d="M901.08,554.38c-.28-.36-.68-.63-.75-1-.65-3.33-1.24-6.66-1.85-10l.37-.2c.24.32.65.6.71.95C900.09,547.5,900.56,550.86,901.08,554.38Z" transform="translate(-860.37 -498.67)"/><polygon points="106.33 9.81 48.02 8.98 106.33 2.45 106.33 9.81"/><path class="cls-3" d="M1037,556.29V538.07h9.24a9.56,9.56,0,0,1,7.1,3,10.44,10.44,0,0,1,.19,14.33C1055,556.37,1037,556.29,1037,556.29Z" transform="translate(-860.37 -498.67)"/><path class="cls-2" d="M865.22,543.5v16.88h12.06v5H865.22v9.53h-4.85V538.55h20.48v5Z" transform="translate(-860.37 -498.67)"/><path class="cls-2" d="M935.92,569.08a18.49,18.49,0,0,1,0-25.7,17.42,17.42,0,0,1,25,0,17.83,17.83,0,0,1,5.17,12.84,25,25,0,0,1-.61,4.9h0a10.33,10.33,0,0,0-6.37,4.17c-.92,1.19-2,2.94-2,6.83,0,.27.17-.1,0,0a17.46,17.46,0,0,1-21.2-3Z" transform="translate(-860.37 -498.67)"/><path class="cls-2" d="M1018.78,543v10.34h12.06v5h-12.06v11.1h15.63v5h-20.48V538.07h20.48v5Z" transform="translate(-860.37 -498.67)"/><path class="cls-2" d="M1036.93,574.41V538.17h9.22a9.48,9.48,0,0,1,7.08,3,10.41,10.41,0,0,1,.19,14.29,9.78,9.78,0,0,1,3.32,3.68,10.15,10.15,0,0,1,1.25,5,10,10,0,0,1-2.94,7.27,9.56,9.56,0,0,1-7.08,3Zm4.77-20.58H1046a5.13,5.13,0,0,0,3.78-1.57,5.23,5.23,0,0,0,1.58-3.81,5.17,5.17,0,0,0-1.53-3.81,5,5,0,0,0-3.71-1.57h-4.45Zm0,15.68H1048a5.05,5.05,0,0,0,3.71-1.57,5.53,5.53,0,0,0,0-7.64,5,5,0,0,0-3.71-1.57h-6.28Z" transform="translate(-860.37 -498.67)"/><path class="cls-3" d="M921.76,574.41l-6.28-8.11h-5.24v8.11h-5v-9.75s2-1.85,2-7.68a13.67,13.67,0,0,0-2-7v-11.9H914a13.08,13.08,0,0,1,9.72,4.13,14.4,14.4,0,0,1,0,20,15.08,15.08,0,0,1-3.12,2.42l7.51,9.82Z" transform="translate(-860.37 -498.67)"/><path class="cls-2" d="M921.76,574.41l-6.28-8.11h-5.24v8.11h-5V538.07H914a13.08,13.08,0,0,1,9.72,4.13,14.4,14.4,0,0,1,0,20,15.08,15.08,0,0,1-3.12,2.42l7.51,9.82Z" transform="translate(-860.37 -498.67)"/><path class="cls-2" d="M969.38,573.5a2.79,2.79,0,0,1-2.1.91,2.88,2.88,0,0,1-2.14-.91,3,3,0,0,1-.89-2.18,3,3,0,0,1,.89-2.18,2.88,2.88,0,0,1,2.14-.91,2.79,2.79,0,0,1,2.1.91,3,3,0,0,1,.89,2.18A3,3,0,0,1,969.38,573.5Zm0,0a2.79,2.79,0,0,1-2.1.91,2.88,2.88,0,0,1-2.14-.91,3,3,0,0,1-.89-2.18,3,3,0,0,1,.89-2.18,2.88,2.88,0,0,1,2.14-.91,2.79,2.79,0,0,1,2.1.91,3,3,0,0,1,.89,2.18A3,3,0,0,1,969.38,573.5Z" transform="translate(-860.37 -498.67)"/><g class="cls-4"><path class="cls-1" d="M975,579.23a9.7,9.7,0,0,1-7.3,3.17,10,10,0,0,1-7.45-3.17,10.47,10.47,0,0,1-3.08-7.57,10.29,10.29,0,0,1,3.08-7.57,10,10,0,0,1,7.45-3.17,9.69,9.69,0,0,1,7.3,3.17,10.29,10.29,0,0,1,3.08,7.57A10.47,10.47,0,0,1,975,579.23Z" transform="translate(-860.37 -498.67)"/></g><g class="cls-5"><path class="cls-2" d="M999.24,562h-.8c-.8-1.23.8-2.45-.8-3.68h8V562Z" transform="translate(-860.37 -498.67)"/></g><path class="cls-2" d="M998,558.35l-.75,1.89-8.23-22.17-8.22,22.17-8.77-22.17h-5.28l14,36.34,8.22-22.3,8.23,22.3,6.21-16.06Z" transform="translate(-860.37 -498.67)"/><path class="cls-2" d="M1006.05,538.07,1000,553.45h5.42l5.94-15.37Z" transform="translate(-860.37 -498.67)"/></svg>