<?xml version="1.0" encoding="iso-8859-1"?>
<!-- Generator: Adobe Illustrator 19.0.0, SVG Export Plug-In . SVG Version: 6.00 Build 0)  -->
<svg version="1.1" id="Layer_1" xmlns="http://www.w3.org/2000/svg" xmlns:xlink="http://www.w3.org/1999/xlink" x="0px" y="0px"
	 viewBox="0 0 496.2 496.2" style="enable-background:new 0 0 496.2 496.2;" xml:space="preserve">
<path style="fill:#4ABC96;" d="M496.2,248.1C496.2,111.1,385.1,0,248.1,0S0,111.1,0,248.1s111.1,248.1,248.1,248.1
	S496.2,385.1,496.2,248.1z"/>
<g>
	<rect x="283" y="131.3" style="fill:#3A3A38;" width="6.9" height="122"/>
	<path style="fill:#3A3A38;" d="M119.4,345.2c-0.1-1.1-9.5-115.3,50.8-181.1c28.3-30.9,67.4-46.6,116.3-46.6v4.6
		c-47.5,0-85.5,15.2-112.9,45.1c-58.9,64.3-49.7,176.4-49.6,177.6L119.4,345.2z"/>
</g>
<rect id="SVGCleanerId_0" x="120.792" y="302.881" transform="matrix(-0.861 -0.5086 0.5086 -0.861 51.1136 703.5316)" style="fill:#686868;" width="1.8" height="83.8"/>
<g transform="matrix(0.8607 0.509 -0.509 0.8607 197.58 -16.874)">
	
		<rect id="SVGCleanerId_1" x="79.805" y="343.861" transform="matrix(-0.8607 -0.509 0.509 -0.8607 50.9642 703.4644)" style="fill:#686868;" width="83.795" height="1.8"/>
</g>
<g transform="matrix(0.70647 0.70777 -0.70777 0.70647 287.66 11.77)">
	
		<rect id="SVGCleanerId_0_1_" x="120.796" y="302.85" transform="matrix(-0.2483 -0.9687 0.9687 -0.2483 -182.0419 548.235)" style="fill:#686868;" width="1.8" height="83.801"/>
</g>
<g transform="matrix(0.2487 0.9686 -0.9686 0.2487 438.98 139.41)">
	
		<rect id="SVGCleanerId_1_1_" x="79.786" y="343.857" transform="matrix(-0.2487 -0.9686 0.9686 -0.2487 -181.9762 548.3597)" style="fill:#686868;" width="83.802" height="1.8"/>
</g>
<polygon style="fill:#686868;" points="88.9,370.8 87.8,369.4 154.6,318.7 155.7,320.2 "/>
<g transform="matrix(0.6041 0.7969 -0.7969 0.6041 332.35 36.31)">
	
		<rect id="SVGCleanerId_1_2_" x="79.775" y="343.854" transform="matrix(-0.6041 -0.7969 0.7969 -0.6041 -79.5576 649.985)" style="fill:#686868;" width="83.799" height="1.8"/>
</g>
<g transform="matrix(0.9907 0.1363 -0.1363 0.9907 49.27 -14.376)">
	
		<rect id="SVGCleanerId_1_3_" x="79.79" y="343.908" transform="matrix(-0.9907 -0.1363 0.1363 -0.9907 195.252 702.985)" style="fill:#686868;" width="83.803" height="1.8"/>
</g>
<rect x="120.803" y="302.883" transform="matrix(-0.9907 -0.1364 0.1364 -0.9907 195.3374 702.947)" style="fill:#686868;" width="1.9" height="83.796"/>
<path style="fill:#FFFFFF;" d="M291.1,265.5c-0.4,0-0.8-0.1-1.2-0.2l-55.4-19.6c-1.8-0.6-2.8-2.6-2.1-4.4c0.6-1.8,2.6-2.7,4.4-2.1
	l55.4,19.6c1.8,0.6,2.8,2.6,2.1,4.4C293.9,264.6,292.5,265.5,291.1,265.5z"/>
<path style="fill:#F4AA4A;" d="M121.7,391.2c-25.5,0-46.2-20.7-46.2-46.2s20.7-46.2,46.2-46.2s46.2,20.7,46.2,46.2
	C167.9,370.4,147.2,391.2,121.7,391.2z M121.7,307.6c-20.6,0-37.4,16.8-37.4,37.4s16.8,37.4,37.4,37.4s37.4-16.8,37.4-37.4
	C159.1,324.3,142.3,307.6,121.7,307.6z"/>
<polygon style="fill:#686868;" points="222,371.5 220,370.4 350.9,149 352.9,150.2 "/>
<g transform="matrix(0.8608 0.509 -0.509 0.8608 177.5 -112.5)">
	
		<rect id="SVGCleanerId_2" x="157.934" y="259.098" transform="matrix(-0.8608 -0.509 0.509 -0.8608 400.6278 630.0807)" style="fill:#686868;" width="257.107" height="2.3"/>
</g>
<g>
	
		<rect x="285.34" y="131.698" transform="matrix(-0.249 -0.9685 0.9685 -0.249 105.7757 602.5155)" style="fill:#686868;" width="2.3" height="257.099"/>
	<polygon style="fill:#686868;" points="317.3,385.1 253.4,136.1 255.6,135.5 319.6,384.5 	"/>
	<polygon style="fill:#686868;" points="184.7,338.9 183.3,337 388.2,181.7 389.6,183.5 	"/>
</g>
<g transform="matrix(0.6041 0.7969 -0.7969 0.6041 330.26 -128.42)">
	
		<rect id="SVGCleanerId_2_1_" x="157.939" y="259.087" transform="matrix(-0.6041 -0.7969 0.7969 -0.6041 252.1726 645.751)" style="fill:#686868;" width="257.098" height="2.3"/>
</g>
<g transform="matrix(0.9907 0.1363 -0.1363 0.9907 39.3 -37.618)">
	
		<rect id="SVGCleanerId_2_2_" x="157.91" y="259.108" transform="matrix(-0.9907 -0.1363 0.1363 -0.9907 534.7822 557.1313)" style="fill:#686868;" width="257.108" height="2.3"/>
</g>
<rect x="285.32" y="131.688" transform="matrix(-0.9907 -0.1362 0.1362 -0.9907 534.8275 557.0729)" style="fill:#686868;" width="2.3" height="257.105"/>
<path style="fill:#3A3A38;" d="M121.7,393.5c-26.7,0-48.5-21.8-48.5-48.5s21.8-48.5,48.5-48.5s48.5,21.8,48.5,48.5
	S148.5,393.5,121.7,393.5z M121.7,305.7c-21.7,0-39.3,17.6-39.3,39.3c0,21.6,17.6,39.3,39.3,39.3c21.6,0,39.3-17.6,39.3-39.3
	C161,323.3,143.4,305.7,121.7,305.7z"/>
<path style="fill:none;stroke:#3A3A38;stroke-width:4.619;stroke-miterlimit:10;" d="M121.7,350.7c-3.2,0-5.8-2.6-5.8-5.8
	c0-3.2,2.6-5.8,5.8-5.8c3.2,0,5.8,2.6,5.8,5.8C127.5,348.2,124.9,350.7,121.7,350.7z"/>
<path style="fill:#F4AA4A;" d="M286.5,391.2c-72.2,0-130.9-58.7-130.9-130.9s58.7-130.9,130.9-130.9s130.9,58.7,130.9,130.9
	S358.6,391.2,286.5,391.2z M286.5,138.5c-67.2,0-121.8,54.6-121.8,121.8s54.6,121.8,121.8,121.8s121.8-54.6,121.8-121.8
	S353.6,138.5,286.5,138.5z"/>
<g>
	<path style="fill:#3A3A38;" d="M286.5,393.5c-73.4,0-133.2-59.7-133.2-133.2c0-73.4,59.7-133.2,133.2-133.2
		c73.4,0,133.2,59.7,133.2,133.2C419.7,333.7,359.9,393.5,286.5,393.5z M286.5,136.3c-68.3,0-123.9,55.6-123.9,123.9
		s55.6,123.9,123.9,123.9s124-55.6,124-123.9C410.4,191.9,354.8,136.3,286.5,136.3z"/>
	<path style="fill:#3A3A38;" d="M286.5,270.7c-5.7,0-10.4-4.7-10.4-10.4c0-5.7,4.7-10.4,10.4-10.4c5.7,0,10.4,4.7,10.4,10.4
		C296.9,266.1,292.3,270.7,286.5,270.7z M286.5,254.6c-3.2,0-5.8,2.6-5.8,5.8c0,3.2,2.6,5.8,5.8,5.8c3.2,0,5.8-2.6,5.8-5.8
		C292.3,257.1,289.7,254.6,286.5,254.6z"/>
	<path style="fill:#3A3A38;" d="M286.5,134.8c-1.9,0-3.5-1.6-3.5-3.5V85.5c0-1.9,1.6-3.5,3.5-3.5s3.5,1.6,3.5,3.5v45.8
		C289.9,133.2,288.4,134.8,286.5,134.8z"/>
	<path style="fill:#3A3A38;" d="M148.6,183c-11.1,0-20.2-9.1-20.2-20.2c0-11.4,4.7-18.2,17.4-25.1c4.3-2.3,27.4-14.4,60.6-20.9
		c29.1-5.7,79.1-9.2,79.6-9.3c1.2-0.1,2.4,0.9,2.5,2.1c0.1,1.3-0.9,2.4-2.1,2.5c-0.5,0-50.2,3.5-79,9.2
		c-32.5,6.4-55.1,18.2-59.3,20.4c-12.6,6.9-15,12.7-15,21.1c0,8.6,7,15.6,15.6,15.6c7.7,0,14.4-5.8,15.4-13.4l-0.1-0.8
		c0-2.6-0.9-4.9-2.6-6.7c-1.7-1.8-4-2.8-6.5-2.8c-5-0.1-9.3,4-9.4,9.1c0,1.8,0.5,3.5,1.4,5c0.7,1.1,0.3,2.5-0.7,3.2
		c-1.1,0.7-2.5,0.4-3.2-0.7c-1.4-2.3-2.1-4.9-2.1-7.6c0.2-7.6,6.3-13.6,13.9-13.6c0.1,0,0.2,0,0.3,0c3.7,0.1,7.2,1.6,9.7,4.2
		c2.6,2.7,3.9,6.2,3.9,9.9v1.1C167.2,175.5,158.6,183,148.6,183z"/>
</g>
<path style="fill:#FFFFFF;" d="M341.9,283.4c-0.4,0-0.8-0.1-1.2-0.2l-55.4-19.6c-1.8-0.6-2.8-2.6-2.1-4.4c0.6-1.8,2.6-2.7,4.4-2.1
	l55.4,19.6c1.8,0.6,2.8,2.6,2.1,4.4C344.7,282.5,343.3,283.4,341.9,283.4z"/>
<g>
	<path style="fill:#E79E2F;" d="M354,278c0.5,1.7-0.5,3.6-2.2,4.1l-16.6,4.8c-1.7,0.5-3.5-0.5-4.1-2.2l0,0c-0.5-1.7,0.5-3.6,2.2-4.1
		l16.6-4.8C351.7,275.2,353.5,276.2,354,278L354,278z"/>
	<path style="fill:#E79E2F;" d="M246.4,238.6c0.4,1.8-0.7,3.5-2.4,3.9l-16.8,4c-1.8,0.4-3.5-0.7-3.9-2.4l0,0
		c-0.4-1.8,0.7-3.5,2.4-3.9l16.8-4C244.2,235.8,246,236.8,246.4,238.6L246.4,238.6z"/>
	<path style="fill:#E79E2F;" d="M235.3,105.3c0.6,4.3-12.4,16-30.1,18.4c-17.7,2.5-32.4,2.2-34.4-11.7c-1.9-13.9,24.7-1.4,33.1-2.3
		C221.7,107.8,234.7,101,235.3,105.3z"/>
</g>
<path style="fill:#3A3A38;" d="M323.4,103.6c-0.1,0-0.2,0-0.3,0c-7.3-0.9-14.6-10.6-15.4-11.7c-5.7-8.6-20-1.3-20.2-1.2
	c-1.1,0.6-2.5,0.2-3.1-1c-0.6-1.1-0.2-2.5,1-3.1c0.7-0.4,18.1-9.3,26.1,2.7c1.8,2.5,7.7,9.2,12.2,9.8c1.3,0.1,2.2,1.3,2,2.6
	C325.6,102.8,324.6,103.6,323.4,103.6z"/>
<ellipse style="fill:#F4AA4A;" cx="255.9" cy="92.3" rx="5.4" ry="6.2"/>
<path style="fill:#3A3A38;" d="M257.1,95.2c-1.2,0-2.2-0.9-2.3-2c-0.2-1.3,0.8-2.4,2-2.6c4.7-0.6,10.4-5.5,12.2-7.4
	c2-3,4.7-4.7,7.6-4.5c6,0.2,10.5,7.9,11,8.7c0.6,1.1,0.2,2.5-0.9,3.1s-2.5,0.2-3.1-0.9c-0.9-1.6-4.2-6.3-7.2-6.4
	c-1.4,0-2.6,0.9-3.8,2.8c-0.6,0.6-7.9,8.2-15.2,9.1C257.3,95.2,257.2,95.2,257.1,95.2z"/>
<path style="fill:#E79E2F;" d="M319.5,101.8c0-3.4,2.4-6.2,5.4-6.2s5.4,2.8,5.4,6.2c0,3.4-2.4,6.2-5.4,6.2
	C321.9,108,319.5,105.2,319.5,101.8z"/>
<path style="fill:#F4AA4A;" d="M321.2,101.8c0-2.3,1.6-4.2,3.7-4.2c2,0,3.7,1.9,3.7,4.2c0,2.3-1.6,4.2-3.7,4.2
	C322.9,106,321.2,104.1,321.2,101.8z"/>
<g>
</g>
<g>
</g>
<g>
</g>
<g>
</g>
<g>
</g>
<g>
</g>
<g>
</g>
<g>
</g>
<g>
</g>
<g>
</g>
<g>
</g>
<g>
</g>
<g>
</g>
<g>
</g>
<g>
</g>
</svg>
